<svg width="150" height="150" viewBox="0 0 150 150" fill="none" xmlns="http://www.w3.org/2000/svg">
<path d="M117.666 0C120.532 2.59614 122.115 10.3095 120.24 13.731C119.647 14.819 118.221 15.4418 117.238 16.3346C116.608 16.9124 116.09 17.6102 115.52 18.2555C116.285 18.6757 117.036 19.4335 117.809 19.4485C122.933 19.5611 128.058 19.486 133.183 19.516C139.013 19.5461 141.721 22.1047 141.827 27.9047C142.262 52.5455 129.904 76.2033 102.112 84.3744C96.9569 85.8901 91.7046 88.5087 87.7129 92.0053C85.0792 94.3088 83.7586 99.0058 83.3985 102.772C83.0083 106.839 84.2688 111.109 85.1467 115.213C85.3493 116.143 86.8875 117.336 87.9229 117.449C98.5401 118.642 99.553 119.625 100.491 130.46C100.513 130.685 100.686 130.895 101.009 131.578C103.005 131.578 105.218 131.563 107.424 131.585C110.725 131.615 112.579 133.063 112.459 136.612C112.361 139.486 112.421 142.36 112.444 145.241C112.466 148.287 111.033 149.976 107.942 149.983C85.9346 150.006 63.9274 150.006 41.9278 149.983C38.889 149.983 37.3358 148.392 37.3658 145.301C37.3883 142.3 37.4108 139.298 37.3583 136.297C37.3058 133.138 39.024 131.728 41.9578 131.615C44.2988 131.518 46.6399 131.593 48.7558 131.593C49.0934 130.947 49.2885 130.737 49.3036 130.512C49.9113 119.992 51.3594 118.537 61.849 117.471C62.8244 117.374 64.175 116.481 64.5352 115.611C66.6811 110.426 67.5365 105.068 66.0133 99.501C64.8278 95.1641 63.1246 91.7051 58.3075 89.8668C51.1344 87.1281 44.2538 83.5791 37.3508 80.1876C15.4337 69.4204 7.03006 46.6404 8.08803 26.4791C8.31313 22.2097 11.1268 19.6286 15.4262 19.5385C20.7986 19.426 26.1784 19.5611 31.5508 19.4485C32.4662 19.426 33.3666 18.7132 34.2745 18.3155C33.6067 17.6177 32.9614 16.9049 32.2636 16.2371C31.3857 15.3967 30.1702 14.7515 29.6224 13.7385C27.7166 10.2195 29.1947 2.68618 32.1285 0C38.3788 0 44.6365 0 50.8867 0C52.3274 3.45151 51.8622 4.30688 48.3206 4.3519C43.3835 4.41943 38.4388 4.37441 33.4041 4.37441C33.4041 7.26318 33.4041 9.57419 33.4041 11.9227C61.2113 11.9227 88.7483 11.9227 116.375 11.9227C116.375 9.31157 116.375 7.00807 116.375 4.37441C114.747 4.37441 113.389 4.37441 112.031 4.37441C95.4112 4.37441 78.784 4.38942 62.1642 4.35941C58.2025 4.3519 57.7297 3.60158 59.1403 0C78.6489 0 98.1574 0 117.666 0ZM38.9265 16.7473C38.7914 17.6327 38.5964 18.3455 38.5964 19.0583C38.6039 31.0561 38.2962 43.0688 38.7314 55.0516C39.4217 73.8623 55.1186 88.9814 73.7567 89.3341C93.2052 89.7092 109.562 75.6856 110.921 56.5672C111.753 44.8771 111.273 33.0895 111.378 21.3468C111.393 19.8837 111.378 18.4206 111.378 16.7473C86.955 16.7473 63.027 16.7473 38.9265 16.7473ZM115.422 34.2675C115.422 43.0538 115.422 51.5626 115.422 61.3243C118.026 57.5502 119.924 54.5414 122.115 51.7726C123.008 50.6472 124.569 50.0469 125.822 49.2065C125.785 50.7747 126.347 52.7556 125.597 53.8285C122.843 57.7978 119.699 61.4969 116.638 65.2485C113.584 68.9927 110.455 72.6843 106.741 77.1412C108.467 77.1412 108.85 77.2388 109.15 77.1262C126.302 70.4708 140.573 45.5749 137.58 27.2669C137.377 26.0139 135.824 24.048 134.826 24.003C128.516 23.7029 122.175 23.8529 115.768 23.8529C115.768 26.0364 115.768 27.7997 115.768 29.8856C118.319 29.8856 120.54 29.8856 122.768 29.8856C131.457 29.8856 132.477 31.1836 130.564 39.8574C130.482 40.2251 130.557 40.7128 130.347 40.9454C129.589 41.7783 128.733 42.5361 127.915 43.3164C127.353 42.2435 126.37 41.1855 126.317 40.0825C126.227 38.1917 126.715 36.2709 126.97 34.275C122.896 34.2675 119.347 34.2675 115.422 34.2675ZM41.7928 145.481C63.9349 145.481 85.8671 145.481 107.927 145.481C107.927 142.232 107.927 139.208 107.927 136.132C85.717 136.132 63.7999 136.132 41.7928 136.132C41.7928 139.381 41.7928 142.33 41.7928 145.481ZM41.2525 77.3588C41.6652 77.0062 42.0704 76.661 42.483 76.3084C39.2416 72.5042 36.2854 68.4074 32.7063 64.9634C24.2876 56.8599 19.8082 47.0006 18.6376 35.543C18.1874 31.1536 19.4405 29.9531 23.9124 29.8856C27.2514 29.8406 30.5903 29.8781 34.0419 29.8781C34.0419 27.5971 34.0419 25.8263 34.0419 23.7779C28.1218 23.7779 22.5018 23.9205 16.8969 23.7254C13.2128 23.5978 11.9672 25.3536 12.0347 28.6926C12.2448 39.3697 14.3983 49.5217 20.0032 58.7657C25.128 67.2369 32.2336 73.4121 41.2525 77.3588ZM95.8989 131.345C96.5442 123.054 95.2311 121.658 87.3302 121.666C78.7239 121.681 70.1176 121.666 61.5114 121.673C54.5708 121.681 52.4324 124.524 54.2932 131.345C68.0767 131.345 81.8753 131.345 95.8989 131.345ZM81.3576 93.4384C76.8256 93.4384 72.8938 93.4384 68.4594 93.4384C71.8959 101.287 71.5208 109.143 68.7296 117.194C73.074 117.194 76.8631 117.194 81.1775 117.194C78.2062 109.165 77.9135 101.407 81.3576 93.4384ZM34.2294 60.4615C34.2294 51.405 34.2294 42.8888 34.2294 34.275C30.2152 34.275 26.6887 34.275 22.7644 34.275C23.7099 44.4419 27.0788 53.0707 34.2294 60.4615Z" fill="#222222"/>
<path d="M61.3762 63.4927C61.3987 63.1175 61.3387 62.7048 61.4737 62.3747C63.312 57.8277 61.4438 54.7213 58.0373 51.6825C56.7992 50.572 56.1389 47.7058 56.6341 46.085C57.0768 44.6519 59.4329 43.0237 61.0611 42.8886C65.6381 42.4985 68.5193 40.7202 70.1926 36.2557C70.7553 34.7476 73.359 33.1194 75.0022 33.1569C76.6454 33.1869 79.1215 34.8901 79.7067 36.4433C81.3499 40.7652 84.1111 42.4835 88.5681 42.8886C90.2788 43.0462 92.6799 44.772 93.1976 46.3101C93.7229 47.8633 92.905 50.7521 91.6294 51.8701C88.283 54.8189 86.8874 57.7451 88.1254 62.2921C88.5831 63.9654 87.4426 66.9066 86.0395 68.0021C84.8014 68.97 81.6801 68.9325 80.277 68.0021C76.3753 65.421 73.1789 65.9012 69.3222 68.1447C65.1654 70.5532 61.3312 68.0547 61.3762 63.4927ZM89.7911 47.5182C81.9802 47.5407 77.3582 43.9541 74.8896 36.5934C72.5711 44.1942 67.4989 47.3156 59.8755 47.6157C66.6735 52.0351 67.6114 57.8877 65.2779 65.0458C69.1646 63.5527 72.0233 61.5868 74.8746 61.6018C77.8159 61.6168 80.7497 63.5527 84.7114 65.0383C81.8602 57.6551 83.4133 52.1102 89.7911 47.5182Z" fill="#222222"/>
</svg>
