<svg width="150" height="150" viewBox="0 0 150 150" fill="none" xmlns="http://www.w3.org/2000/svg">
<path d="M0.0224977 39.5548C3.42729 28.0505 13.2592 21.7434 21.1037 13.8989C24.1935 10.809 29.7432 11.6715 32.563 15.1738C37.9777 21.8784 43.1974 28.748 48.2896 35.7C50.5769 38.8274 50.1045 43.1471 47.4421 46.0944C45.0198 48.7792 42.4024 51.2991 39.8151 53.8339C37.6852 55.9263 37.5727 58.0187 39.2601 60.501C49.4145 75.4626 61.9462 88.0169 76.9078 98.1863C79.5552 99.9862 81.655 99.8587 83.8374 97.5788C86.1623 95.1415 88.5471 92.7416 91.022 90.4542C94.4643 87.2744 98.5665 86.8845 102.309 89.5243C105.984 92.1116 109.553 94.8715 112.981 97.7738C113.746 98.4263 113.746 99.9787 114.106 101.119C112.898 101.029 111.413 101.366 110.536 100.781C107.423 98.7038 104.529 96.3114 101.536 94.054C97.3441 90.8817 95.7317 91.1142 91.8544 95.7264C100.644 102.461 109.418 109.181 118.148 115.87C121.92 112.96 122.048 111.138 119.213 107.448C118.628 106.683 118.755 105.371 118.553 104.313C119.738 104.441 121.238 104.156 122.055 104.771C126.105 107.838 126.457 113.748 122.678 117.655C119.835 120.587 116.565 123.107 113.251 126.01C116.198 128.567 118.14 128.319 119.835 126.692C121.823 124.78 123.533 124.487 125.595 126.58C127.612 128.619 129.877 128.507 131.88 126.512C133.777 124.622 135.427 124.667 137.339 126.527C139.702 128.829 141.944 128.237 144.239 126.122C145.004 125.417 146.429 125.432 147.546 125.117C147.359 126.437 147.591 128.042 146.909 129.009C144.951 131.777 140.729 132.857 137.429 131.372C135.464 130.487 133.934 130.847 131.939 131.132C128.827 131.574 125.302 129.782 122.355 130.524C119.003 131.372 116.078 132.474 112.636 131.027C111.638 130.607 109.763 130.937 108.923 131.664C102.864 136.884 96.0992 138.519 88.3446 136.584C58.9464 129.227 36.8678 111.543 19.1313 87.6944C18.1639 86.3895 17.009 85.1371 16.424 83.6672C15.974 82.5347 16.2815 81.0948 16.259 79.7974C17.3689 80.2773 18.8539 80.4574 19.5213 81.2898C22.4161 84.8821 24.861 88.8494 27.8608 92.3516C44.6448 111.955 64.5036 126.902 90.2045 132.819C96.3017 134.222 101.596 132.737 106.104 128.499C109.193 125.597 112.133 122.537 115.56 119.125C106.576 112.233 97.8091 105.513 89.1396 98.8612C88.7121 98.9737 88.3896 98.9587 88.2546 99.1087C82.9225 105.026 78.7452 104.726 71.9881 99.8137C58.9239 90.3192 47.5471 79.2574 38.1952 66.0807C32.2855 57.7487 32.2255 56.6688 38.8626 48.6968C32.188 39.9598 25.4685 31.1628 18.3589 21.8484C14.3841 26.0856 10.3944 29.8354 7.01957 34.0727C3.88477 38.0174 3.3823 42.9821 4.85221 47.6618C7.23706 55.2514 10.2069 62.6609 12.9442 70.138C13.1167 70.603 13.5817 71.0529 13.5517 71.4804C13.4842 72.6578 13.2217 73.8278 13.0342 74.9977C11.9768 74.4052 10.3269 74.0602 9.9669 73.1753C7.04957 66.1707 4.35723 59.0611 1.6274 51.9741C1.01244 50.3692 0.539967 48.7193 0 47.0844C0.0224986 44.557 0.0224977 42.0522 0.0224977 39.5548ZM21.5687 19.2311C28.2883 28.013 35.0454 36.84 41.825 45.6894C46.3847 41.8272 46.6322 40.1248 43.4899 35.9775C39.2076 30.3229 34.9179 24.6682 30.5681 19.0586C27.6808 15.3463 24.9585 15.3688 21.5687 19.2311Z" fill="#222222"/>
<path d="M78.0999 85.8945C80.7547 83.1421 83.4921 80.4573 86.0344 77.615C88.0293 75.3876 90.3766 74.5627 93.3315 74.5852C104.821 74.6752 116.318 74.6452 127.814 74.6152C139.379 74.5852 145.693 68.308 145.738 56.8562C145.761 51.8615 145.798 46.8594 145.723 41.8647C145.573 32.0253 139.034 25.4407 129.202 25.3657C117.712 25.2757 106.216 25.3431 94.7189 25.3356C93.7214 25.3356 92.6415 25.4931 91.7566 25.1556C91.0966 24.9082 90.2791 23.9857 90.2791 23.3632C90.2791 22.7408 91.1116 21.9758 91.7641 21.5484C92.2215 21.2484 92.9715 21.3534 93.5939 21.3534C105.961 21.3534 118.335 21.1734 130.694 21.4284C141.419 21.6534 149.698 30.2779 149.908 41.0172C150.028 47.0093 150.036 53.009 149.901 59.0086C149.661 69.8679 141.081 78.4474 130.237 78.5674C118.372 78.6949 106.501 78.4849 94.6364 78.7174C92.544 78.7624 90.1217 79.8498 88.4793 81.2148C85.1345 83.9971 82.3071 87.4019 79.0673 90.3192C78.1074 91.1817 76.09 92.0141 75.2276 91.5641C74.1101 90.9866 73.6452 89.1193 72.9327 87.7844C72.8277 87.5894 72.8802 87.2894 72.9177 87.0419C73.7576 81.5597 72.5802 77.9299 66.5881 75.4026C60.1085 72.6653 57.2061 66.3056 57.0187 59.1736C56.8537 52.934 56.8462 46.6793 57.0187 40.4397C57.3561 28.0655 69.9329 18.5261 81.9696 21.4734C82.7271 21.6609 83.2746 22.6733 83.927 23.3033C83.1921 23.9707 82.5396 25.0657 81.7072 25.2232C80.0123 25.5381 78.2199 25.2832 76.48 25.3732C68.3655 25.8081 61.8559 31.5752 61.2709 39.6748C60.7759 46.5068 60.8509 53.4139 61.2559 60.261C61.6234 66.5081 65.0882 71.3004 71.0428 73.2127C76.135 74.8476 77.7699 77.8025 77.1324 82.6922C77.0199 83.5396 77.1174 84.4171 77.1174 85.287C77.4549 85.4895 77.7774 85.692 78.0999 85.8945Z" fill="#222222"/>
<path d="M94.2242 55.4162C91.6668 55.4162 89.4469 55.4237 87.2346 55.4162C84.6397 55.4012 83.7023 54.1038 84.9322 51.8314C87.2421 47.5642 89.6119 43.3044 92.2893 39.2697C92.9867 38.2197 95.0491 37.3948 96.279 37.6198C97.1715 37.7773 98.1389 39.7646 98.3414 41.0471C98.6864 43.2369 98.2664 45.5468 98.5514 47.7517C98.7314 49.1541 99.6313 50.4515 100.156 51.8164C100.441 52.5664 101.049 53.5638 100.786 54.0963C99.5938 56.5411 98.1539 58.8585 96.804 61.2284C96.0315 60.6209 94.9366 60.1634 94.5766 59.3684C94.1417 58.4085 94.3367 57.1786 94.2242 55.4162ZM94.3142 45.0668C94.0742 44.9768 93.8342 44.8868 93.6017 44.8043C92.4693 46.8292 91.3368 48.8541 89.8444 51.5089C91.8918 51.3664 93.0317 51.284 94.3142 51.2015C94.3142 48.9291 94.3142 46.9942 94.3142 45.0668Z" fill="#222222"/>
<path d="M75.3399 58.1161C77.9648 58.1161 79.8021 57.9436 81.587 58.1986C82.3445 58.3036 82.9744 59.301 83.6644 59.8935C82.9594 60.6059 82.2845 61.8809 81.5345 61.9334C78.3097 62.1659 75.0474 62.2183 71.8226 61.9933C69.2428 61.8058 68.6728 60.141 70.0827 58.0711C72.0401 55.1913 74.1925 52.4314 76.2099 49.5966C76.9298 48.5842 77.9873 47.5117 78.0547 46.4168C78.1447 44.9544 77.4248 43.4395 77.0498 41.9471C75.6624 42.412 74.23 42.7795 72.9026 43.372C71.7476 43.882 70.7052 44.6469 69.6103 45.2993C69.5803 43.8744 69.0628 42.2095 69.6103 41.0621C71.1102 37.9198 74.6725 36.7049 77.8673 37.7998C81.1971 38.9472 83.2369 41.8721 82.622 45.3143C82.2845 47.2042 81.3545 49.0641 80.3721 50.7515C79.0147 53.0539 77.3573 55.1838 75.3399 58.1161Z" fill="#222222"/>
<path d="M133.072 41.6549C130.155 41.6549 127.89 41.8724 125.7 41.5499C124.8 41.4224 124.058 40.1475 123.248 39.3976C124.05 38.7526 124.815 37.6052 125.655 37.5527C129.007 37.3352 132.382 37.3727 135.749 37.4927C138.239 37.5827 138.614 39.2776 137.804 41.19C135.119 47.4896 132.375 53.7667 129.465 59.9613C129.09 60.7563 127.612 61.0338 126.645 61.5512C126.382 60.4788 125.617 59.2039 125.947 58.3714C128.092 52.9643 130.485 47.6471 133.072 41.6549Z" fill="#222222"/>
<path d="M107.131 62.0535C106.576 60.4936 105.669 59.3012 105.946 58.5513C108.421 51.9067 111.053 45.322 113.821 38.7899C114.121 38.085 115.545 37.8525 116.445 37.395C116.798 38.3325 117.683 39.4724 117.413 40.1849C114.923 46.822 112.261 53.4066 109.553 59.9612C109.283 60.6211 108.368 61.0111 107.131 62.0535Z" fill="#222222"/>
</svg>
