<svg width="150" height="150" viewBox="0 0 150 150" fill="none" xmlns="http://www.w3.org/2000/svg">
<path d="M150 102.303C147.772 109.31 144.621 115.656 138.14 119.85C137.367 120.345 137.074 122.003 137.044 123.135C136.917 127.254 137.21 131.402 136.879 135.498C136.752 137.119 135.739 139.422 134.494 139.977C133.271 140.517 130.81 139.699 129.64 138.649C125.289 134.711 121.373 130.3 117.022 126.369C115.627 125.108 113.391 124.141 111.531 124.126C95.4097 123.953 79.2809 124.013 63.1597 124.028C56.9257 124.036 51.3144 122.183 46.5883 118.147C45.6806 117.367 45.6581 115.544 45.2305 114.201C46.5358 114.418 48.1336 114.223 49.0864 114.913C53.6024 118.207 58.5161 119.752 64.1274 119.707C80.1287 119.595 96.1224 119.73 112.124 119.617C115.237 119.595 117.622 120.442 119.738 122.753C123.616 126.976 127.682 131.027 131.673 135.146C132.033 135.033 132.393 134.913 132.753 134.801C132.753 130.907 132.919 127.006 132.701 123.128C132.513 119.797 133.631 117.509 136.422 115.574C142.611 111.298 145.581 105.199 145.581 97.6669C145.581 89.7901 145.634 81.9207 145.574 74.0439C145.476 61.681 136.077 52.1238 123.759 52.0638C103.512 51.9662 83.2644 51.9737 63.0096 52.0638C50.6617 52.1163 41.2845 61.6285 41.1795 74.0214C41.112 81.8982 41.052 89.7751 41.232 97.6444C41.2921 100.345 42.2523 103.016 42.4773 105.724C42.5673 106.849 41.8172 108.042 41.4496 109.205C40.4518 108.492 38.8315 107.959 38.5689 107.037C37.7212 104.066 37.1286 100.968 36.9035 97.892C36.6334 94.1861 36.836 90.4428 36.836 85.5291C34.3454 86.6694 32.29 87.1045 30.9321 88.3273C27.3988 91.4855 24.3006 95.1313 20.7372 98.2596C19.5219 99.3248 17.1589 100.218 15.8686 99.7374C14.6608 99.2873 14.0457 96.9543 13.408 95.3564C13.1079 94.5987 13.273 93.616 13.363 92.7533C13.9706 86.9694 13.1305 82.3333 7.7592 78.2899C2.2154 74.1189 0.122407 67.3223 0.0623928 60.2557C-0.00512299 52.1313 -0.03513 44.0069 0.0623928 35.8825C0.242435 21.5916 11.6151 10.1439 25.8609 10.0689C46.2357 9.9639 66.6105 9.9789 86.9777 10.1139C89.9109 10.1364 92.8891 10.9391 95.7473 11.7343C96.58 11.9669 97.0601 13.4597 97.7052 14.3674C96.595 14.8175 95.4547 15.7103 94.382 15.6427C90.6761 15.3952 87.0002 14.4425 83.3094 14.42C64.69 14.2849 46.0632 14.3299 27.4363 14.3674C13.4755 14.3974 4.42841 23.4296 4.3909 37.3153C4.36839 44.9371 4.3459 52.5664 4.40592 60.1882C4.45843 67.5699 7.48163 73.5863 13.513 77.7573C16.5512 79.8653 17.8716 82.2958 17.6465 85.8892C17.474 88.6123 17.609 91.3505 17.609 94.4712C24.7357 90.9454 27.0537 81.1931 36.8285 81.8757C36.8285 79.1301 36.7985 76.5495 36.836 73.9689C37.0236 59.2204 48.2462 47.8778 63.0321 47.7278C76.6553 47.5927 90.2785 47.6903 103.902 47.6903C105.267 47.6903 106.625 47.6903 108.388 47.6903C108.65 38.6056 109.918 29.701 103.519 22.1543C102.431 20.8715 101.186 19.2811 103.249 18.1558C103.999 17.7432 106.055 18.6134 106.82 19.4986C111.081 24.4273 112.896 30.3012 112.859 36.7902C112.836 40.2635 112.851 43.7368 112.851 47.6977C116.332 47.6977 119.415 47.6827 122.499 47.6977C136.137 47.7653 145.694 55.117 149.31 68.3126C149.475 68.9052 149.767 69.4603 150 70.0305C150 80.7955 150 91.553 150 102.303Z" fill="#45270F"/>
<path d="M87.6006 101.043C88.4783 100.068 89.356 99.0925 90.2112 98.1472C84.1872 91.1706 84.4423 80.6456 90.5262 75.7845C89.641 69.1079 83.8722 63.7367 76.9106 63.099C69.2738 62.4014 62.0421 66.7749 60.1591 73.474C59.8891 74.4417 60.4592 76.0771 61.2169 76.8197C64.6902 80.2706 65.7029 91.6432 62.5822 95.3866C60.6617 97.6896 58.0886 98.4848 55.1555 97.7872C52.1623 97.0745 50.1818 95.0115 49.8667 92.1233C49.4691 88.5525 49.6642 84.8991 49.8892 81.2983C49.9567 80.1655 50.6469 78.5602 51.5471 78.0725C54.8479 76.2721 55.4555 72.9413 56.9484 70.0082C60.9693 62.1238 67.5784 58.2304 76.4455 58.763C84.99 59.2806 90.7363 63.8642 94.1946 71.6435C95.0873 73.654 96.7902 75.2969 97.9755 77.1948C98.9357 78.7327 100.211 80.3381 100.414 82.0185C100.796 85.2217 100.631 88.5075 100.444 91.7408C100.376 92.9035 99.8659 94.2838 99.0782 95.109C95.7775 98.5523 92.2817 101.816 88.8834 105.161C88.2757 105.754 87.7506 106.437 87.248 107.127C84.9824 110.218 81.5992 111.44 78.0058 110.255C75.1552 109.31 73.2197 107.412 73.3097 104.231C73.3922 101.238 75.2527 98.9574 78.0058 98.7249C81.1191 98.4698 84.3298 99.37 87.4955 99.7751C87.518 100.21 87.5631 100.623 87.6006 101.043ZM53.9702 86.6921C53.9702 87.9374 53.6026 89.3477 54.0677 90.3904C54.6378 91.6657 55.8981 92.6259 56.8658 93.7212C57.9011 92.686 59.6115 91.7708 59.8215 90.5855C60.2716 88.0499 60.2267 85.3342 59.8066 82.7837C59.6265 81.6809 58.0061 80.8182 57.0384 79.843C56.0182 80.8782 54.6829 81.7634 54.0752 83.0087C53.5876 84.0139 53.9777 85.4468 53.9702 86.6921ZM90.5037 85.9494C90.5037 87.5473 90.1587 88.9276 90.5938 89.9853C91.1564 91.3656 92.1916 93.3461 93.2944 93.5412C95.6274 93.9538 96.2726 91.9433 96.2576 89.8578C96.2501 88.62 96.3626 87.3747 96.2426 86.1444C96.0175 83.7589 97.3303 80.0455 93.4669 80.0005C89.2134 79.948 90.9463 83.9014 90.5037 85.9494ZM80.4889 106.917C81.7117 105.957 82.6044 105.259 83.4971 104.561C82.4918 103.856 81.5241 102.678 80.4739 102.603C79.5887 102.536 78.6135 103.759 77.6758 104.411C78.5159 105.161 79.3486 105.904 80.4889 106.917Z" fill="#45270F"/>
<path d="M115.522 66.8496C118.252 66.8496 121.006 66.6846 123.714 66.9396C124.674 67.0297 125.544 68.1624 126.452 68.8151C125.514 69.5577 124.606 70.9081 123.639 70.9456C118.177 71.1556 112.709 71.1331 107.24 70.9606C106.302 70.9306 105.409 69.7528 104.494 69.1077C105.432 68.3575 106.317 67.0672 107.322 66.9547C110.03 66.6471 112.784 66.8496 115.522 66.8496Z" fill="#45270F"/>
<path d="M113.534 81.193C111.419 81.193 109.273 81.4105 107.203 81.103C106.228 80.9604 105.41 79.8127 104.517 79.1225C105.327 78.3723 106.115 77.022 106.963 76.977C111.306 76.7594 115.672 76.782 120.016 76.9695C120.788 76.9995 121.509 78.2223 122.251 78.8974C121.464 79.6626 120.751 80.9379 119.866 81.0805C117.795 81.4105 115.642 81.193 113.534 81.193Z" fill="#45270F"/>
<path d="M22.1547 34.7271C23.6251 36.8575 25.2754 38.2454 25.0504 39.1756C24.7503 40.4134 23.0924 41.9137 21.8246 42.1238C20.9994 42.2588 19.0114 40.2859 19.0265 39.2731C19.034 38.0428 20.6094 36.8275 22.1547 34.7271Z" fill="#45270F"/>
<path d="M46.5806 39.1235C44.7127 40.5864 43.4899 42.2668 42.5072 42.1317C41.2544 41.9667 40.1966 40.3388 39.0488 39.3411C40.1291 38.2608 41.0818 36.5504 42.3271 36.3029C43.2873 36.1153 44.6227 37.7507 46.5806 39.1235Z" fill="#45270F"/>
<path d="M36.6335 39.2659C34.5406 40.7213 33.3103 42.2441 32.2375 42.1391C31.0748 42.0266 30.062 40.3912 28.9893 39.4235C30.0695 38.3207 31.0147 36.6253 32.2825 36.3252C33.1978 36.1152 34.5481 37.7731 36.6335 39.2659Z" fill="#45270F"/>
</svg>
