<svg width="100" height="100" viewBox="0 0 100 100" fill="none" xmlns="http://www.w3.org/2000/svg">
<g clip-path="url(#clip0_92_2)">
<path d="M85.3554 14.6446C75.9117 5.20101 63.3554 0 50 0C36.6446 0 24.0883 5.20101 14.6446 14.6446C5.20081 24.0885 0 36.6444 0 50C0 63.3556 5.20081 75.9115 14.6446 85.3554C24.0883 94.799 36.6446 100 50 100C56.7483 100 63.2968 98.6776 69.4636 96.0691L66.3158 88.6267C61.1503 90.8115 55.6608 91.9192 50 91.9192C26.8857 91.9192 8.08081 73.1143 8.08081 50C8.08081 26.8857 26.8857 8.08081 50 8.08081C73.1143 8.08081 91.9192 26.8857 91.9192 50C91.9192 59.7267 86.2541 64.0806 80.6398 64.0806C75.0252 64.0806 69.3602 59.7269 69.3602 50C69.3602 39.3246 60.6754 30.6398 50 30.6398C39.3246 30.6398 30.6398 39.3248 30.6398 50C30.6398 60.6752 39.3246 69.3602 50 69.3602C55.7677 69.3602 60.9533 66.824 64.5032 62.8095C68.1596 68.9824 74.4238 72.1612 80.6398 72.1612C90.2606 72.1614 100 64.5491 100 50C100 36.6444 94.7992 24.0885 85.3554 14.6446ZM50 61.2794C43.7806 61.2794 38.7206 56.2194 38.7206 50C38.7206 43.7806 43.7806 38.7206 50 38.7206C56.2194 38.7206 61.2794 43.7806 61.2794 50C61.2794 56.2194 56.2194 61.2794 50 61.2794Z" fill="#f1c40f"/>
</g>
<defs>
<clipPath id="clip0_92_2">
<rect width="100" height="100" fill="white"/>
</clipPath>
</defs>
</svg>
