<svg width="100" height="100" viewBox="0 0 100 100" fill="none" xmlns="http://www.w3.org/2000/svg">
<rect width="100" height="100" fill="#F1C40F"/>
<path d="M32.5809 52.33H40.4106V84.5636C40.4106 85.2 40.9263 85.7157 41.5627 85.7157H54.8383C55.4747 85.7157 55.9904 85.2 55.9904 84.5636V52.4818H64.9913C65.5765 52.4818 66.0689 52.0426 66.1357 51.4613L67.5028 39.5945C67.5404 39.268 67.4369 38.941 67.2185 38.6961C66.9998 38.4509 66.6869 38.3106 66.3586 38.3106H55.9908V30.8719C55.9908 28.6295 57.1982 27.4924 59.5798 27.4924C59.9192 27.4924 66.3586 27.4924 66.3586 27.4924C66.995 27.4924 67.5106 26.9765 67.5106 26.3403V15.4477C67.5106 14.8113 66.995 14.2956 66.3586 14.2956H57.0164C56.9505 14.2924 56.8042 14.2871 56.5885 14.2871C54.9675 14.2871 49.3332 14.6053 44.8825 18.6998C39.9512 23.2371 40.6367 28.6698 40.8005 29.6118V38.3104H32.5809C31.9445 38.3104 31.4288 38.826 31.4288 39.4625V51.1777C31.4288 51.8141 31.9445 52.33 32.5809 52.33Z" fill="#222222"/>
</svg>
