<svg width="100" height="100" viewBox="0 0 100 100" fill="none" xmlns="http://www.w3.org/2000/svg">
<rect width="100" height="100" fill="#F1C40F"/>
<path d="M49.7618 40.8338C47.3938 40.8338 45.1228 41.7745 43.4483 43.4489C41.7739 45.1234 40.8332 47.3944 40.8332 49.7624C40.8332 52.1304 41.7739 54.4014 43.4483 56.0758C45.1228 57.7503 47.3938 58.691 49.7618 58.691C52.1298 58.691 54.4008 57.7503 56.0752 56.0758C57.7497 54.4014 58.6903 52.1304 58.6903 49.7624C58.6903 47.3944 57.7497 45.1234 56.0752 43.4489C54.4008 41.7745 52.1298 40.8338 49.7618 40.8338ZM49.7618 34.8814C53.7084 34.8814 57.4935 36.4492 60.2842 39.24C63.0749 42.0307 64.6427 45.8157 64.6427 49.7624C64.6427 53.7091 63.0749 57.4941 60.2842 60.2848C57.4935 63.0755 53.7084 64.6433 49.7618 64.6433C45.8151 64.6433 42.0301 63.0755 39.2394 60.2848C36.4486 57.4941 34.8808 53.7091 34.8808 49.7624C34.8808 45.8157 36.4486 42.0307 39.2394 39.24C42.0301 36.4492 45.8151 34.8814 49.7618 34.8814V34.8814ZM69.107 34.1374C69.107 35.1241 68.7151 36.0703 68.0174 36.768C67.3197 37.4657 66.3734 37.8576 65.3868 37.8576C64.4001 37.8576 63.4538 37.4657 62.7562 36.768C62.0585 36.0703 61.6665 35.1241 61.6665 34.1374C61.6665 33.1507 62.0585 32.2045 62.7562 31.5068C63.4538 30.8091 64.4001 30.4172 65.3868 30.4172C66.3734 30.4172 67.3197 30.8091 68.0174 31.5068C68.7151 32.2045 69.107 33.1507 69.107 34.1374V34.1374ZM49.7618 25.9529C42.3987 25.9529 41.1963 25.9737 37.7707 26.1255C35.4374 26.2356 33.8719 26.5481 32.4195 27.1136C31.1279 27.6136 30.1963 28.2118 29.2052 29.2058C28.2737 30.1058 27.5575 31.2046 27.11 32.4201C26.5445 33.8785 26.232 35.441 26.1249 37.7713C25.9701 41.057 25.9523 42.2058 25.9523 49.7624C25.9523 57.1255 25.9731 58.3279 26.1249 61.7535C26.235 64.0838 26.5475 65.6523 27.11 67.1017C27.6159 68.3963 28.2112 69.3279 29.1993 70.316C30.2023 71.3159 31.1338 71.9142 32.4136 72.4082C33.8838 72.9767 35.4493 73.2921 37.7707 73.3993C41.0564 73.554 42.2052 73.5719 49.7618 73.5719C57.1249 73.5719 58.3272 73.5511 61.7528 73.3993C64.0802 73.2892 65.6487 72.9767 67.1011 72.4142C68.3897 71.9112 69.3272 71.313 70.3153 70.3249C71.3183 69.3219 71.9165 68.3904 72.4106 67.1106C72.9761 65.6433 73.2915 64.0749 73.3987 61.7535C73.5534 58.4677 73.5713 57.3189 73.5713 49.7624C73.5713 42.3993 73.5505 41.1969 73.3987 37.7713C73.2886 35.4439 72.9761 33.8725 72.4106 32.4201C71.962 31.2058 71.2471 30.1075 70.3183 29.2058C69.4187 28.2738 68.3198 27.5575 67.104 27.1106C65.6457 26.5451 64.0802 26.2326 61.7528 26.1255C58.4671 25.9707 57.3183 25.9529 49.7618 25.9529ZM49.7618 20.0005C57.8481 20.0005 58.857 20.0303 62.0296 20.1791C65.1993 20.3279 67.357 20.8249 69.2558 21.563C71.2201 22.3189 72.8749 23.3427 74.5296 24.9945C76.043 26.4823 77.214 28.282 77.9612 30.2683C78.6963 32.1642 79.1963 34.3249 79.3451 37.4945C79.485 40.6671 79.5237 41.6761 79.5237 49.7624C79.5237 57.8487 79.4939 58.8576 79.3451 62.0302C79.1963 65.1999 78.6963 67.3576 77.9612 69.2564C77.2162 71.2439 76.0449 73.044 74.5296 74.5302C73.0414 76.0431 71.2419 77.214 69.2558 77.9618C67.36 78.6969 65.1993 79.1969 62.0296 79.3457C58.857 79.4856 57.8481 79.5243 49.7618 79.5243C41.6755 79.5243 40.6665 79.4945 37.4939 79.3457C34.3243 79.1969 32.1665 78.6969 30.2677 77.9618C28.2806 77.2162 26.4806 76.045 24.9939 74.5302C23.4803 73.0427 22.3092 71.2429 21.5624 69.2564C20.8243 67.3606 20.3273 65.1999 20.1784 62.0302C20.0386 58.8576 19.9999 57.8487 19.9999 49.7624C19.9999 41.6761 20.0296 40.6671 20.1784 37.4945C20.3273 34.3219 20.8243 32.1672 21.5624 30.2683C22.3071 28.2808 23.4785 26.4806 24.9939 24.9945C26.481 23.4803 28.2809 22.3092 30.2677 21.563C32.1665 20.8249 34.3213 20.3279 37.4939 20.1791C40.6665 20.0392 41.6755 20.0005 49.7618 20.0005Z" fill="#222222"/>
</svg>
