<svg width="100" height="100" viewBox="0 0 100 100" fill="none" xmlns="http://www.w3.org/2000/svg">
<rect width="100" height="100" fill="#F1C40F"/>
<path d="M30.9124 37.1875H16.573C15.9366 37.1875 15.4209 37.7034 15.4209 38.3396V84.4059C15.4209 85.0423 15.9366 85.558 16.573 85.558H30.9124C31.5488 85.558 32.0644 85.0423 32.0644 84.4059V38.3396C32.0644 37.7034 31.5488 37.1875 30.9124 37.1875Z" fill="#222222"/>
<path d="M23.7479 14.2871C18.5303 14.2871 14.2856 18.5272 14.2856 23.739C14.2856 28.953 18.5303 33.1947 23.7479 33.1947C28.9612 33.1947 33.2025 28.9528 33.2025 23.739C33.2027 18.5272 28.9612 14.2871 23.7479 14.2871Z" fill="#222222"/>
<path d="M67.3855 36.0405C61.6263 36.0405 57.3689 38.5163 54.7866 41.3295V38.3375C54.7866 37.7014 54.271 37.1855 53.6346 37.1855H39.9021C39.2657 37.1855 38.75 37.7014 38.75 38.3375V84.4039C38.75 85.0403 39.2657 85.556 39.9021 85.556H54.2101C54.8465 85.556 55.3622 85.0403 55.3622 84.4039V61.6117C55.3622 53.9313 57.4484 50.9391 62.8023 50.9391C68.6332 50.9391 69.0965 55.7359 69.0965 62.0069V84.4041C69.0965 85.0405 69.6122 85.5562 70.2486 85.5562H84.562C85.1984 85.5562 85.7141 85.0405 85.7141 84.4041V59.1359C85.7141 47.7154 83.5364 36.0405 67.3855 36.0405Z" fill="#222222"/>
</svg>
