<svg width="100" height="100" viewBox="0 0 100 100" fill="none" xmlns="http://www.w3.org/2000/svg">
<path d="M87.1625 19.3127L62.3583 86.3127C60.7916 90.5461 56.2791 92.7211 52.2833 91.1669C51.2938 90.7749 50.3961 90.1824 49.6468 89.4266C48.8974 88.6708 48.3126 87.7681 47.9291 86.7752L40.0666 66.9002C38.5891 63.085 35.6601 60.0107 31.9208 58.3502L12.9958 50.0961C9.05831 48.3752 7.26664 43.6044 8.98747 39.4377C9.39451 38.4317 9.99701 37.5163 10.7601 36.7446C11.5233 35.9729 12.4318 35.3602 13.4333 34.9419L77.25 8.90024C81.2791 7.25441 85.75 9.32108 87.2291 13.5211C87.8833 15.3794 87.8583 17.4377 87.1666 19.3127H87.1625Z" fill="#EBA771"/>
</svg>
