<svg width="150" height="150" viewBox="0 0 150 150" fill="none" xmlns="http://www.w3.org/2000/svg">
<path d="M24.2244 65.0913C16.5583 64.4873 14.6224 62.4121 14.6147 55.3577C14.6069 50.6109 14.6147 45.8641 14.6147 41.1947C8.25721 40.1184 8.25721 40.1184 6.84789 33.7764C0.0103262 32.5761 0.0103247 32.5761 0.0103247 25.212C0.0103247 24.1821 -0.0129059 23.1445 0.0103247 22.1146C0.19617 14.1774 -1.24413 14.735 6.79368 13.829C6.93306 13.6199 7.18086 13.4263 7.20409 13.2018C7.82357 7.00691 7.82358 7.00691 14.2662 7.00691C49.6155 7.00691 84.9571 6.98368 120.306 7.0224C129.196 7.03014 127.392 6.21707 128.584 13.7438C134.648 14.7814 134.648 14.7814 135.879 21.588C137.172 21.588 138.558 21.5493 139.944 21.5958C146 21.7816 149.802 25.483 149.933 31.5617C150.057 37.1061 149.972 42.6582 149.964 48.2026C149.949 56.6354 146.472 60.0658 137.877 60.0812C123.814 60.1045 109.752 60.089 95.6897 60.089C89.7659 60.089 83.8421 60.089 77.6007 60.089C77.6007 62.5902 77.6007 64.8203 77.6007 67.3137C81.5809 66.8491 81.155 69.7297 82.3166 72.3935C86.6065 82.2201 83.8885 92.2944 84.4073 102.206C84.9339 112.373 84.5467 122.579 84.5157 132.778C84.4925 141.241 76.4547 145.849 69.1758 141.288C67.4102 140.181 65.6757 137.408 65.6447 135.38C65.3659 116.292 65.335 97.1961 65.5828 78.1082C65.6215 74.9334 67.1082 71.6656 68.4479 68.6766C68.8892 67.7009 70.9955 67.4686 72.6836 66.7639C72.6836 64.4331 72.792 61.8623 72.6526 59.3069C72.4977 56.4805 73.698 55.288 76.5012 55.3422C80.3729 55.4196 84.2447 55.3577 88.1088 55.3577C104.75 55.3577 121.391 55.3654 138.031 55.3499C143.971 55.3422 145.287 53.9948 145.318 48.04C145.341 43.6572 145.326 39.2666 145.326 34.8837C145.326 26.8769 143.994 25.6844 135.422 26.5284C136.305 31.6856 134.516 34.7288 128.77 33.3582C127.245 40.7378 127.245 40.7378 119.733 40.7378C97.672 40.7378 75.6107 40.7378 53.557 40.7378C52.0315 40.7378 50.4983 40.7378 48.516 40.7378C48.5624 47.4747 47.7261 53.5302 38.5655 52.7249C38.5655 58.85 38.581 64.7583 38.5577 70.6667C38.5345 76.0639 35.801 79.4014 31.4569 79.3859C27.0586 79.3704 24.3096 76.0949 24.2244 70.7131C24.2012 68.9089 24.2244 67.1201 24.2244 65.0913ZM12.1987 35.6736C13.0505 35.8052 13.5538 35.9213 14.0571 35.9523C19.1989 36.2543 19.2066 36.2543 19.2143 41.2876C19.2221 46.4448 19.1059 51.6098 19.315 56.7593C19.3615 57.8821 20.5772 58.9662 21.2586 60.0658C22.2498 59.2991 23.2565 58.548 24.2322 57.7659C25.1304 57.0458 25.9977 56.2869 26.8805 55.5435C27.5696 56.6121 28.7854 57.6498 28.8628 58.7571C29.1106 62.6134 28.7621 66.5084 29.0796 70.3492C29.1958 71.7972 30.3418 74.1977 31.302 74.3449C34.0742 74.7708 33.9736 72.3083 33.9736 70.3492C33.9813 62.6134 33.8961 54.8698 34.0665 47.134C34.0975 45.8873 35.2512 44.6561 35.894 43.4249C36.8154 44.2689 37.6982 45.1517 38.6584 45.9415C39.5644 46.6849 40.6717 47.9548 41.4848 47.8155C42.3056 47.6761 43.1729 46.1661 43.4826 45.0975C43.8311 43.905 43.5756 42.5421 43.5911 41.2489C43.6298 36.3163 43.9473 35.9756 48.8567 35.9756C72.0719 35.9678 95.2948 35.9678 118.51 35.9678C120.02 35.9678 121.538 35.9678 123.156 35.9678C123.156 27.597 123.156 19.7141 123.156 11.9008C85.956 11.9008 49.1277 11.9008 12.1987 11.9008C12.1987 19.9154 12.1987 27.6203 12.1987 35.6736ZM70.1282 79.6492C70.1282 81.2289 70.1282 82.3672 70.1282 83.5132C70.1282 99.8754 70.1205 116.238 70.136 132.607C70.136 137.323 70.5928 137.571 75.1538 137.78C79.0101 137.958 79.9548 136.247 79.9238 132.693C79.7922 116.33 79.8696 99.9683 79.8541 83.5984C79.8541 82.344 79.7302 81.0972 79.6528 79.6492C76.4702 79.6492 73.5741 79.6492 70.1282 79.6492ZM8.04039 24.337C7.3125 22.4708 6.63881 20.744 5.96512 19.0172C5.53148 20.8369 4.7881 22.6566 4.74938 24.4841C4.71841 25.8625 5.58569 27.2641 6.0503 28.6579C6.66978 27.3105 7.28927 25.9631 8.04039 24.337ZM131.364 23.6478C130.667 22.0914 129.986 20.5581 129.304 19.0249C128.941 20.6278 128.236 22.2462 128.298 23.8337C128.36 25.4521 129.173 27.0395 129.661 28.6347C130.187 27.0937 130.714 25.5527 131.364 23.6478Z" fill="#222222"/>
<path d="M28.8938 44.4626C28.8938 46.3907 29.1571 48.3653 28.7854 50.216C28.5996 51.1375 27.2522 51.8267 26.4314 52.6243C25.719 51.8499 24.4413 51.1065 24.3948 50.2935C24.1702 46.4527 24.1393 42.5886 24.3793 38.7478C24.4335 37.8418 25.8041 37.0133 26.5708 36.146C27.3528 36.99 28.6305 37.7412 28.8241 38.7091C29.1881 40.5676 28.9325 42.5422 28.9325 44.4703C28.9093 44.4626 28.9016 44.4626 28.8938 44.4626Z" fill="#222222"/>
<path d="M39.7659 37.3386C38.1398 38.7634 37.1718 39.623 36.1961 40.4825C35.4605 39.3674 34.1363 38.2446 34.1441 37.1295C34.1518 35.9835 35.445 34.8375 36.1729 33.6914C37.1641 34.6981 38.1552 35.7047 39.7659 37.3386Z" fill="#222222"/>
</svg>
