<svg width="100" height="100" viewBox="0 0 100 100" fill="none" xmlns="http://www.w3.org/2000/svg">
<g clip-path="url(#clip0_92_20)">
<path d="M98.9282 75.8394C95.2057 68.8022 82.2789 61.1717 81.7097 60.8381C80.0487 59.8926 78.3153 59.3921 76.6932 59.3921C74.2814 59.3921 72.307 60.4969 71.1113 62.5065C69.2204 64.7682 66.8753 67.4118 66.3062 67.8215C61.9014 70.8099 58.4533 70.4706 54.6381 66.6554L33.3448 45.3603C29.5537 41.5692 29.2052 38.0784 32.1732 33.6978C32.5885 33.125 35.232 30.778 37.4937 28.8852C38.936 28.0269 39.926 26.7514 40.3598 25.1868C40.9363 23.1049 40.5118 20.656 39.1511 18.2701C38.8303 17.7214 31.1962 4.79268 24.1627 1.07202C22.8502 0.376827 21.3709 0.00976562 19.8878 0.00976562C17.4444 0.00976562 15.1457 0.962641 13.4179 2.68857L8.71282 7.39177C1.27149 14.8312 -1.42214 23.2644 0.702362 32.4557C2.47464 40.1158 7.63944 48.2671 16.0559 56.6817L43.3166 83.9425C53.9688 94.5947 64.1242 99.9968 73.5009 99.9968C73.5009 99.9968 73.5009 99.9968 73.5028 99.9968C80.3991 99.9968 86.8282 97.0659 92.6066 91.2874L97.3098 86.5842C100.168 83.7274 100.817 79.408 98.9282 75.8394Z" fill="#EBA771"/>
</g>
<defs>
<clipPath id="clip0_92_20">
<rect width="100" height="100" fill="white"/>
</clipPath>
</defs>
</svg>
