<svg width="150" height="150" viewBox="0 0 150 150" fill="none" xmlns="http://www.w3.org/2000/svg">
<path d="M129.996 61.9487C128.137 61.7884 125.052 62.2051 124.651 61.3557C123.289 58.4709 126.638 58.3187 128.145 57.1327C130.885 54.9691 132.744 55.6342 134.411 58.7434C138.81 66.973 143.442 75.0904 148.026 83.2239C150.678 87.9437 150.67 92.5434 147.929 97.2552C141.551 108.201 135.212 119.18 128.954 130.198C126.109 135.214 122.047 137.682 116.213 137.506C110.371 137.33 104.514 137.466 98.167 137.466C98.167 140.094 98.3273 142.458 98.0949 144.782C97.9907 145.792 97.2775 147.026 96.4521 147.547C96.0194 147.819 94.4568 146.994 93.9119 146.272C87.9741 138.548 82.0844 130.791 76.3629 122.898C75.7539 122.056 75.85 120.005 76.4671 119.091C81.7799 111.246 87.2369 103.498 92.7901 95.8208C93.4232 94.9394 94.8896 94.6669 95.9714 94.114C96.4602 95.1076 97.2855 96.0772 97.3817 97.111C97.5981 99.4588 97.4458 101.847 97.4458 104.451C105.748 104.451 113.569 104.451 121.774 104.451C121.454 103.53 121.285 102.68 120.885 101.951C115.989 93.0723 111.189 84.1455 106.084 75.387C104.153 72.0775 103.937 69.8899 107.935 68.2792C110.027 67.4378 111.854 65.9714 113.945 65.122C114.803 64.7774 116.021 65.3383 117.07 65.4906C116.678 66.5724 116.59 68.0708 115.82 68.6558C113.945 70.0661 111.75 71.0518 109.362 72.398C114.17 81.0844 118.801 89.4503 123.433 97.8161C123.753 98.4011 124.082 98.9861 124.443 99.539C125.941 101.847 126.326 105.004 130.469 104.804C135.028 104.579 139.331 104.692 141.655 99.7393C142.553 97.8161 144.163 96.1413 144.732 94.1541C145.357 91.9664 146.046 89.0816 145.141 87.2947C140.661 78.3919 135.661 69.7536 130.845 61.0192C130.541 61.3477 130.268 61.6442 129.996 61.9487ZM93.7116 139.101C93.1186 133.299 95.9714 133.187 99.345 133.299C104.946 133.483 110.564 133.315 116.165 133.419C120.332 133.491 123.257 131.744 125.284 128.114C128.265 122.753 131.43 117.497 134.483 112.168C134.956 111.343 135.204 110.381 135.717 109.091C123.433 109.091 111.693 109.091 99.9619 109.091C94.0882 109.091 94.0883 109.091 92.4375 103.538C88.2065 109.54 84.1838 115.261 80.081 121.087C84.4482 126.864 88.6793 132.458 93.7116 139.101Z" fill="#45270F"/>
<path d="M62.2193 109.283C50.584 109.283 39.1331 109.275 27.6821 109.307C27.0651 109.307 26.3118 109.491 25.863 109.868C22.0647 113.065 21.2554 120.406 23.3549 124.949C26.464 131.68 31.2159 134.693 38.6202 133.595C40.5754 133.307 42.6509 133.379 44.6061 133.676C45.3594 133.788 46.2328 134.894 46.4972 135.719C46.6255 136.12 45.4795 137.49 44.9266 137.474C39.4936 137.37 33.9565 137.626 28.6837 136.584C26.2477 136.104 23.7716 133.323 22.2891 130.967C15.3256 119.901 8.7066 108.626 1.95941 97.4234C-0.709009 93.0001 -0.588809 88.6088 1.93537 84.1454C4.94035 78.8326 7.84115 73.4637 10.9663 67.8063C8.57837 66.5162 6.42283 65.4985 4.43554 64.2004C3.68229 63.7115 2.83286 62.4935 2.96107 61.7643C3.08929 61.0271 4.29128 60.0495 5.14069 59.9213C14.9009 58.4468 24.6771 57.0445 34.4773 55.8345C35.4309 55.7143 37.0576 56.724 37.5224 57.6455C41.8575 66.2117 46.0405 74.858 50.1433 83.5364C50.576 84.4419 50.1994 85.732 50.2074 86.8379C48.9974 86.7978 47.6592 87.0703 46.6094 86.6456C44.4298 85.7561 42.4104 84.498 39.9584 83.1999C36.104 90.4439 32.4419 97.3353 28.3632 105.004C31.4162 105.004 33.7561 105.012 36.104 105.004C44.9186 104.964 53.7332 104.988 62.5478 104.828C65.6249 104.772 66.867 105.901 66.8349 109.035C66.7468 117.176 66.9551 125.326 66.8269 133.475C66.8029 134.789 65.8173 137.105 65.04 137.217C62.4837 137.578 59.8153 137.121 57.1869 136.985C57.5635 135.847 57.6116 134.293 58.405 133.684C59.1903 133.075 60.7048 133.419 62.2353 133.331C62.2193 125.486 62.2193 117.689 62.2193 109.283ZM17.8738 115.766C23.9478 104.299 29.6934 93.6332 35.2386 82.8633C36.9855 79.4657 38.5962 76.7011 43.2599 79.65C40.5113 73.2554 37.6826 67.3095 34.6696 61.4518C34.3331 60.8027 32.9147 60.2819 32.0814 60.386C25.6627 61.1793 19.2601 62.1329 11.6956 63.2067C17.3209 65.5947 15.6702 68.4073 13.8511 71.4764C10.9904 76.2844 8.00944 81.0763 5.78976 86.1808C4.74002 88.6008 4.27526 92.2629 5.37308 94.4345C8.947 101.542 13.3623 108.217 17.8738 115.766Z" fill="#45270F"/>
<path d="M88.0219 41.9076C83.8229 34.904 79.8083 28.2129 75.401 20.8567C70.8414 28.4213 66.5944 35.4409 62.3634 42.4685C60.7126 45.2091 58.9978 47.9176 57.4672 50.7222C56.2011 53.0461 54.6706 53.1983 52.5551 51.9162C45.1428 47.4288 37.6904 42.9974 30.2461 38.5661C28.4031 37.4683 27.9944 36.114 29.1964 34.2549C30.3503 32.4599 31.2157 30.4647 32.5459 28.8219C33.0988 28.1408 34.5092 28.1568 35.5269 27.8523C35.6871 28.894 36.208 30.0479 35.9195 30.9454C35.4467 32.4359 34.4531 33.7581 33.4755 35.505C40.2627 39.5998 46.9618 43.6385 54.0936 47.9416C56.5056 43.975 58.8455 40.1688 61.1533 36.3384C64.2465 31.1939 67.4117 26.0974 70.3286 20.8567C71.2661 19.1739 72.5082 16.6177 71.8751 15.3195C69.992 11.5052 68.3172 7.04985 63.0204 6.42481C55.4799 5.53534 48.8369 6.33666 45.6396 14.6865C44.9825 16.4013 43.8607 17.988 42.6988 19.4304C42.258 19.9833 40.7115 20.416 40.3749 20.1115C39.7419 19.5346 39.1809 18.3005 39.3572 17.5072C41.4487 8.14768 49.2536 2.04152 58.9337 2.04152C70.6731 2.04152 82.4206 2.13769 94.16 2.00147C100.298 1.92935 104.545 4.51763 107.438 9.85447C110.155 14.8788 113.103 19.7749 116.148 25.0637C118.4 23.7656 120.371 22.4514 122.503 21.4978C123.4 21.0891 124.811 21.1211 125.652 21.5699C126.093 21.8103 126.165 23.5171 125.837 24.3265C122.126 33.3174 118.392 42.3003 114.41 51.179C113.945 52.2047 111.901 53.1823 110.667 53.0942C101.356 52.4531 92.0526 51.6037 82.7652 50.6501C81.6433 50.5379 80.6176 49.4481 79.5438 48.8071C80.2891 47.8214 80.866 46.6034 81.8196 45.8822C83.7027 44.4638 85.7942 43.3179 88.0219 41.9076ZM89.7608 47.0201C96.1153 47.597 102.47 48.2221 108.832 48.6868C109.69 48.751 111.124 48.2221 111.413 47.573C114.145 41.4749 116.693 35.2886 119.795 27.9405C115.644 30.9534 113.785 29.9598 112.166 26.7705C109.69 21.9065 106.661 17.3309 104.145 12.4909C101.853 8.08357 98.5514 6.05619 93.5431 6.26454C88.3504 6.4809 83.1418 6.28859 77.9412 6.28058C76.058 6.28058 74.1749 6.28058 71.6267 6.28058C78.3819 17.5953 84.488 28.0607 90.8586 38.3657C92.8859 41.6191 94.2562 44.2715 89.7608 47.0201Z" fill="#45270F"/>
</svg>
