<svg width="100" height="100" viewBox="0 0 100 100" fill="none" xmlns="http://www.w3.org/2000/svg">
<g clip-path="url(#clip0_92_24)">
<path d="M50 0C40.111 0 30.444 2.93245 22.2215 8.42652C13.9991 13.9206 7.59043 21.7295 3.80605 30.8658C0.0216641 40.0021 -0.968503 50.0555 0.960758 59.7545C2.89002 69.4536 7.65206 78.3627 14.6447 85.3553C21.6373 92.348 30.5465 97.11 40.2455 99.0393C49.9446 100.969 59.9979 99.9784 69.1342 96.194C78.2705 92.4096 86.0794 86.001 91.5735 77.7785C97.0676 69.5561 100 59.8891 100 50C100 36.7392 94.7322 24.0215 85.3554 14.6447C75.9786 5.26784 63.2609 0 50 0V0ZM50 87.5C42.5832 87.5 35.333 85.3007 29.1661 81.1801C22.9993 77.0596 18.1928 71.2029 15.3545 64.3506C12.5163 57.4984 11.7736 49.9584 13.2206 42.6841C14.6675 35.4098 18.239 28.728 23.4835 23.4835C28.728 18.239 35.4099 14.6675 42.6841 13.2206C49.9584 11.7736 57.4984 12.5162 64.3507 15.3545C71.2029 18.1928 77.0596 22.9993 81.1801 29.1661C85.3007 35.333 87.5 42.5832 87.5 50C87.4893 59.9423 83.5349 69.4744 76.5047 76.5046C69.4744 83.5349 59.9423 87.4893 50 87.5V87.5Z" fill="#f1c40f"/>
<path d="M62.5625 50H53.125C52.2962 50 51.5013 49.6708 50.9153 49.0847C50.3292 48.4987 50 47.7038 50 46.875V37.4375C50.0004 36.6248 49.8406 35.8201 49.5298 35.0692C49.219 34.3183 48.7633 33.636 48.1886 33.0614C47.614 32.4867 46.9317 32.031 46.1808 31.7202C45.43 31.4094 44.6252 31.2496 43.8125 31.25H43.6875C42.8748 31.2496 42.0701 31.4094 41.3192 31.7202C40.5683 32.031 39.886 32.4867 39.3114 33.0614C38.7367 33.636 38.281 34.3183 37.9702 35.0692C37.6594 35.8201 37.4996 36.6248 37.5 37.4375V56.3125C37.4996 57.1252 37.6594 57.93 37.9702 58.6808C38.281 59.4317 38.7367 60.114 39.3114 60.6886C39.886 61.2633 40.5683 61.719 41.3192 62.0298C42.0701 62.3406 42.8748 62.5004 43.6875 62.5H62.5625C63.3752 62.5004 64.18 62.3406 64.9308 62.0298C65.6817 61.719 66.364 61.2633 66.9386 60.6886C67.5133 60.114 67.969 59.4317 68.2798 58.6808C68.5906 57.93 68.7504 57.1252 68.75 56.3125V56.1875C68.7504 55.3748 68.5906 54.5701 68.2798 53.8192C67.969 53.0683 67.5133 52.386 66.9386 51.8114C66.364 51.2367 65.6817 50.781 64.9308 50.4702C64.18 50.1594 63.3752 49.9996 62.5625 50V50Z" fill="#f1c40f"/>
</g>
<defs>
<clipPath id="clip0_92_24">
<rect width="100" height="100" fill="white"/>
</clipPath>
</defs>
</svg>
