<svg width="100" height="100" viewBox="0 0 100 100" fill="none" xmlns="http://www.w3.org/2000/svg">
<rect width="100" height="100" fill="#EBA771"/>
<path d="M84.0955 28.1793C82.9734 28.6769 81.8197 29.097 80.6408 29.4381C82.0365 27.8597 83.1005 26.0026 83.75 23.9703C83.8957 23.5148 83.7448 23.0162 83.3703 22.7183C82.9963 22.4201 82.4768 22.3844 82.0651 22.6284C79.5616 24.1132 76.8607 25.1803 74.0287 25.8042C71.1759 23.0167 67.3013 21.4302 63.2958 21.4302C54.8407 21.4302 47.962 28.3088 47.962 36.7635C47.962 37.4294 48.0041 38.0917 48.0875 38.7447C37.5957 37.8235 27.8415 32.6666 21.1434 24.4503C20.9047 24.1574 20.537 23.9995 20.1605 24.0298C19.7838 24.0592 19.4452 24.2717 19.2549 24.5983C17.8964 26.9293 17.1782 29.5955 17.1782 32.3082C17.1782 36.0029 18.4972 39.5084 20.8275 42.2476C20.1189 42.0022 19.4314 41.6956 18.7751 41.3313C18.4229 41.1352 17.9929 41.1382 17.6429 41.3389C17.2927 41.5396 17.0731 41.9086 17.0638 42.3121C17.0621 42.38 17.0621 42.448 17.0621 42.5169C17.0621 48.0318 20.0303 52.997 24.5684 55.7032C24.1784 55.6643 23.7889 55.6078 23.4018 55.5338C23.0027 55.4575 22.5924 55.5975 22.3233 55.9019C22.0537 56.206 21.9644 56.63 22.0887 57.0171C23.7684 62.2614 28.093 66.1186 33.3211 67.2947C28.9849 70.0106 24.0262 71.4332 18.8208 71.4332C17.7346 71.4332 16.6422 71.3694 15.5731 71.2429C15.042 71.1797 14.5342 71.4933 14.3533 71.9985C14.1723 72.5038 14.3642 73.0671 14.8159 73.3567C21.5032 77.6445 29.2356 79.9108 37.1769 79.9108C52.7883 79.9108 62.5544 72.5491 67.9979 66.3734C74.7859 58.6726 78.6789 48.4799 78.6789 38.4088C78.6789 37.988 78.6725 37.5632 78.6595 37.1397C81.3377 35.1219 83.6433 32.68 85.5196 29.8734C85.8046 29.4472 85.7738 28.8837 85.4435 28.4914C85.1142 28.0984 84.5645 27.9714 84.0955 28.1793Z" fill="white"/>
</svg>
