<svg width="150" height="150" viewBox="0 0 150 150" fill="none" xmlns="http://www.w3.org/2000/svg">
<path d="M128.149 49.7381C133.514 50.2709 136.546 53.0551 136.208 58.7659C136.186 59.1261 136.193 59.6514 136.411 59.8391C141.807 64.4092 139.886 70.6454 140.148 76.3487C140.321 80.0709 140.178 83.8005 140.178 87.4326C147 88.9485 147.345 89.3988 147.345 96.3704C147.345 101.623 147.345 106.877 147.345 112.13C147.345 118.831 147.075 119.169 140.178 120.7C140.178 126.425 140.186 132.271 140.178 138.117C140.156 146.92 137.041 149.997 128.149 149.997C90.0039 149.997 51.8592 150.004 13.7219 149.997C5.58715 149.997 2.03007 146.492 2.03007 138.432C2.01506 115.544 2.06008 92.6632 2.00005 69.7748C1.99254 65.7975 2.84054 62.4055 6.17999 59.8616C6.93793 59.2837 7.41071 58.068 7.61333 57.0624C8.64893 51.8919 10.6901 49.8732 16.0708 50.0834C19.7029 50.2259 20.6334 48.9727 20.8661 45.4757C21.4814 36.3803 22.5545 27.3075 23.5526 18.2423C24.108 13.2293 26.6144 10.933 31.4698 11.3382C42.0584 12.2163 52.6321 13.2819 63.1908 14.4526C64.1363 14.5576 64.9243 16.021 65.7873 16.854C64.5791 17.3868 63.3258 18.4749 62.1702 18.3773C52.3319 17.5669 42.5162 16.4862 32.6855 15.5932C28.3179 15.1955 27.8151 15.7958 27.3874 20.2084C26.2542 31.9002 25.031 43.5846 23.9579 55.2764C23.8678 56.2219 24.6408 57.25 25.0085 58.2406C25.6088 57.3626 26.6294 56.5296 26.742 55.5916C27.59 48.3949 28.3329 41.1831 28.9483 33.9564C29.2034 30.9322 30.269 28.7934 33.2483 27.5777C34.6891 26.9849 36.205 25.9042 37.023 24.621C39.1993 21.2365 42.141 20.6812 45.7881 21.2215C49.7429 21.8068 53.7578 21.9644 57.6976 22.6173C58.8832 22.8124 59.9038 24.0281 61.007 24.7786C59.7162 25.3489 58.4105 26.4371 57.1347 26.3995C53.0223 26.287 48.9174 25.5665 44.805 25.484C43.3267 25.454 41.7357 26.422 40.3774 27.24C39.2218 27.9304 38.4788 29.5063 37.2931 29.8966C33.0382 31.2999 32.8656 34.6618 32.5954 38.2564C32.1151 44.7177 31.4097 51.164 30.8094 57.5652C37.7134 59.7415 40.9553 58.6684 44.7675 53.0926C55.6113 37.1908 66.4552 21.2966 77.2915 5.38727C81.659 -1.02147 84.3681 -1.52428 90.8219 2.88079C104.135 11.9686 117.462 21.0414 130.768 30.1367C135.51 33.3786 136.126 36.7331 132.944 41.5884C131.368 43.9898 129.747 46.3612 128.171 48.7626C128.051 48.9502 128.149 49.2428 128.149 49.7381ZM6.57772 134.455C5.54212 144.488 6.69029 145.802 15.8081 145.802C52.9398 145.802 90.079 145.802 127.211 145.802C128.464 145.802 129.71 145.817 130.963 145.764C133.897 145.637 135.653 143.986 136.036 141.194C136.321 139.145 136.088 137.029 136.088 134.47C134.152 134.47 132.561 134.47 130.97 134.47C98.4614 134.47 65.9524 134.493 33.4434 134.388C32.1752 134.38 30.9144 133.164 29.6537 132.519C30.8994 131.859 32.0926 131.041 33.4134 130.605C34.3139 130.305 35.3945 130.545 36.3926 130.545C68.1512 130.545 99.9097 130.545 131.668 130.545C133.102 130.545 134.527 130.545 135.946 130.545C135.946 126.771 135.946 123.694 135.946 120.144C134.385 120.144 133.042 120.144 131.706 120.144C126.077 120.137 120.449 120.257 114.828 120.077C106.694 119.814 100.322 113.503 99.632 105.286C98.9566 97.2934 104.472 89.5864 112.532 88.5433C118.813 87.7328 125.244 88.123 131.608 87.9655C133.049 87.9279 134.482 87.8304 135.893 87.7553C135.893 84.2433 135.893 81.189 135.893 78.1572C92.5554 78.1572 49.5028 78.1572 6.45015 78.1572C6.45015 95.68 6.45015 112.888 6.45015 130.545C9.98471 130.545 13.3392 130.395 16.6636 130.635C17.7442 130.71 18.7498 131.814 19.7854 132.451C18.7723 133.119 17.7968 134.29 16.7462 134.373C13.4292 134.613 10.0673 134.455 6.57772 134.455ZM6.25503 73.2794C49.7954 73.2794 92.9081 73.2794 135.998 73.2794C136.674 63.5387 135.578 62.323 126.423 62.323C100.563 62.323 74.7025 62.323 48.8499 62.323C36.8579 62.323 24.8659 62.293 12.8739 62.338C8.06359 62.353 6.33758 64.1391 6.26254 68.8893C6.23252 70.2551 6.25503 71.6284 6.25503 73.2794ZM54.7709 58.3307C56.9321 58.3307 58.2754 58.1806 59.5737 58.3607C63.6485 58.916 65.8848 57.9179 67.1156 53.2877C68.9917 46.2261 75.7231 42.0161 83.0323 41.9411C90.5367 41.8661 96.998 46.1736 99.6245 53.0926C100.24 54.706 100.6 56.4095 101.058 57.993C107.774 58.8635 107.774 58.871 111.331 53.6479C111.962 52.7174 112.525 51.7343 113.23 50.8638C115.646 47.8545 117.492 44.8528 115.069 40.8755C114.476 39.9074 114.926 38.3615 114.483 37.2359C113.86 35.6599 113.215 33.7613 111.962 32.8308C106.746 28.9735 101.223 25.544 95.9699 21.7318C93.2233 19.7356 90.7394 18.1897 87.2873 20.1859C86.1842 20.8238 84.5933 20.9288 83.2725 20.8013C80.9837 20.5911 79.6779 21.4767 78.4172 23.3528C71.6257 33.5212 64.6841 43.5996 57.8026 53.708C56.9171 55.0137 56.0841 56.327 54.7709 58.3307ZM143.12 92.1229C133.86 92.1229 125.034 92.0628 116.202 92.1379C109.043 92.1979 103.887 97.1508 103.752 103.89C103.624 110.584 108.622 115.972 115.721 116.182C123.954 116.43 132.201 116.219 140.441 116.287C142.294 116.302 143.165 115.784 143.142 113.758C143.067 106.771 143.12 99.7774 143.12 92.1229ZM113.635 57.6177C113.928 57.9554 114.221 58.2932 114.513 58.6233C115.706 57.7829 117.237 57.1825 118.04 56.0568C121.815 50.7813 125.402 45.3706 129.042 39.99C131.623 36.1627 131.488 35.5699 127.556 32.8908C114.341 23.9006 101.125 14.9103 87.9102 5.92759C84.2631 3.45114 83.5126 3.5712 81.0212 7.21083C73.2016 18.655 65.4121 30.1142 57.6075 41.5734C53.9829 46.894 50.3658 52.2221 46.7412 57.5427C47.0639 57.9179 47.394 58.3006 47.7167 58.6759C48.9399 57.7228 50.4934 56.9949 51.3338 55.7792C59.221 44.3875 67.0555 32.9584 74.7325 21.4241C76.9238 18.1297 79.2727 16.006 83.5502 16.5688C85.051 16.7639 86.8146 16.2236 88.2254 15.5407C90.8294 14.2725 92.9681 14.7828 95.2045 16.3362C101.666 20.8163 108.127 25.3189 114.723 29.5964C117.65 31.495 119.121 33.7088 118.798 37.3109C118.648 38.9619 119.136 40.8304 119.864 42.3538C121.087 44.9278 120.817 47.1041 119.211 49.3554C117.29 52.057 115.489 54.8561 113.635 57.6177ZM70.3349 58.0455C79.1301 58.0455 87.6776 58.0455 96.2401 58.0455C95.8498 51.1114 90.2215 45.9559 83.295 45.9184C76.4585 45.8959 70.6201 51.2315 70.3349 58.0455ZM122.28 58.1055C125.612 58.1055 128.659 58.1055 131.713 58.1055C131.938 57.8129 132.171 57.5277 132.396 57.235C131.361 56.1844 130.475 54.5109 129.259 54.2183C126.243 53.4978 123.248 53.753 122.28 58.1055ZM19.7029 54.3984C13.3317 53.5504 12.1385 54.1357 12.0934 57.9704C18.8699 59.0511 19.6504 58.7059 19.7029 54.3984Z" fill="#222222"/>
<path d="M116.359 112.595C111.518 112.647 107.766 109.03 107.706 104.25C107.646 99.5222 111.413 95.6049 116.089 95.5299C120.741 95.4548 124.689 99.2896 124.794 103.987C124.899 108.7 121.124 112.542 116.359 112.595ZM120.674 103.957C120.299 101.338 118.865 99.6798 116.059 99.7624C113.432 99.8374 111.909 101.443 111.849 104.002C111.781 106.801 113.507 108.467 116.216 108.49C118.925 108.512 120.449 106.809 120.674 103.957Z" fill="#222222"/>
</svg>
