<svg width="100" height="100" viewBox="0 0 100 100" fill="none" xmlns="http://www.w3.org/2000/svg">
<rect width="100" height="100" fill="#F1C40F"/>
<path d="M32.9108 73.3784L35.5172 74.9012C39.9126 77.4646 44.9117 78.8104 50 78.8C55.6961 78.8 61.2643 77.1109 66.0004 73.9463C70.7366 70.7817 74.4279 66.2838 76.6077 61.0212C78.7875 55.7587 79.3579 49.968 78.2466 44.3814C77.1354 38.7947 74.3924 33.6631 70.3647 29.6353C66.3369 25.6076 61.2053 22.8646 55.6186 21.7534C50.032 20.6421 44.2413 21.2125 38.9787 23.3923C33.7162 25.5721 29.2183 29.2634 26.0537 33.9996C22.8891 38.7357 21.2 44.3039 21.2 50C21.2 55.1696 22.5572 60.1268 25.1024 64.4864L26.6216 67.0928L24.2708 75.7364L32.9108 73.3784ZM14.0144 86L18.8816 68.1152C15.6745 62.6174 13.9896 56.3647 14 50C14 30.1172 30.1172 14 50 14C69.8828 14 86 30.1172 86 50C86 69.8828 69.8828 86 50 86C43.638 86.0102 37.388 84.3266 31.892 81.122L14.0144 86ZM37.0076 33.1088C37.49 33.0728 37.976 33.0728 38.4584 33.0944C38.6528 33.1088 38.8472 33.1304 39.0416 33.152C39.614 33.2168 40.244 33.566 40.4564 34.0484C41.5292 36.482 42.5732 38.9336 43.5812 41.3924C43.8044 41.9396 43.6712 42.6416 43.2464 43.3256C42.9543 43.7881 42.6382 44.2351 42.2996 44.6648C41.8928 45.1868 41.018 46.1444 41.018 46.1444C41.018 46.1444 40.6616 46.5692 40.7984 47.0984C40.8488 47.3 41.0144 47.5916 41.1656 47.8364L41.378 48.1784C42.2996 49.7156 43.538 51.2744 45.05 52.7432C45.482 53.1608 45.9032 53.5892 46.3568 53.9888C48.0416 55.4756 49.9496 56.6888 52.0088 57.5888L52.0268 57.596C52.3328 57.7292 52.4876 57.8012 52.934 57.992C53.1572 58.0856 53.3876 58.1684 53.6216 58.2296C53.8634 58.2912 54.1181 58.2796 54.3533 58.1962C54.5885 58.1129 54.7937 57.9616 54.9428 57.7616C57.5492 54.6044 57.7868 54.3992 57.8084 54.3992V54.4064C57.9895 54.2375 58.2046 54.1093 58.4393 54.0304C58.674 53.9516 58.9229 53.9239 59.1692 53.9492C59.3852 53.9636 59.6048 54.0032 59.8064 54.0932C61.718 54.968 64.8464 56.3324 64.8464 56.3324L66.9416 57.272C67.2944 57.4412 67.6148 57.8408 67.6256 58.226C67.64 58.4672 67.6616 58.856 67.5788 59.5688C67.4636 60.5012 67.1828 61.6208 66.902 62.2076C66.7097 62.608 66.4545 62.9751 66.146 63.2948C65.7828 63.6762 65.3851 64.0232 64.958 64.3316C64.8103 64.4427 64.6602 64.5507 64.508 64.6556C64.0602 64.9396 63.6002 65.2039 63.1292 65.4476C62.2023 65.9399 61.1786 66.2226 60.1304 66.2756C59.4644 66.3116 58.7984 66.362 58.1288 66.326C58.1 66.326 56.084 66.0128 56.084 66.0128C50.9657 64.6665 46.2322 62.1444 42.26 58.6472C41.4464 57.9308 40.694 57.1604 39.9236 56.3936C36.7196 53.2076 34.3004 49.7696 32.8316 46.5224C32.0798 44.9286 31.6738 43.1938 31.64 41.432C31.6252 39.2462 32.3397 37.118 33.6704 35.384C33.9332 35.0456 34.1816 34.6928 34.61 34.286C35.0672 33.854 35.3552 33.6236 35.6684 33.4652C36.0849 33.2565 36.5391 33.1341 37.004 33.1052L37.0076 33.1088Z" fill="#222222"/>
</svg>
